Coordinates
version=1
nRows=17
nColumns=38
inDegrees=no

Units are S.I. units (second, meters, Newtons, ...)
If the header above contains a line with 'inDegrees', this indicates whether rotational values are in degrees (yes) or radians (no).

endheader
time	pelvis_tilt	pelvis_list	pelvis_rotation	pelvis_tx	pelvis_ty	pelvis_tz	hip_flexion_r	hip_adduction_r	hip_rotation_r	knee_angle_r	ankle_angle_r	subtalar_angle_r	mtp_angle_r	hip_flexion_l	hip_adduction_l	hip_rotation_l	knee_angle_l	ankle_angle_l	subtalar_angle_l	mtp_angle_l	lumbar_extension	lumbar_bending	lumbar_rotation	arm_flex_r	arm_add_r	arm_rot_r	elbow_flex_r	pro_sup_r	wrist_flex_r	wrist_dev_r	arm_flex_l	arm_add_l	arm_rot_l	elbow_flex_l	pro_sup_l	wrist_flex_l	wrist_dev_l
0.87	-1.68309	1.51567	0.251389	0.747694	1.17996	0.924897	0.418995	-0.0453069	-0.310694	0.495087	-0.313782	0	0	-0.258416	-0.115002	-0.106513	0.502405	-0.18057	0	0	-0.0650523	0.135007	-0.171543	-0.113402	-0.289878	0.176399	0.761719	1.5708	0	0	-0.0241111	-0.212239	0.182605	0.868362	1.5708	0	0
0.88	-1.68027	1.51078	0.242444	0.745053	1.16828	0.92596	0.413896	-0.0371463	-0.320515	0.509015	-0.309782	0	0	-0.24802	-0.123969	-0.103415	0.54268	-0.196225	0	0	-0.0589955	0.139484	-0.166195	-0.114451	-0.289823	0.180277	0.75779	1.5708	0	0	-0.0373785	-0.213403	0.190976	0.853149	1.5708	0	0
0.89	-1.6504	1.5053	0.204992	0.742162	1.15676	0.927289	0.404719	-0.0259903	-0.326851	0.51734	-0.30613	0	0	-0.236638	-0.134056	-0.100705	0.588082	-0.212278	0	0	-0.0555684	0.144612	-0.159999	-0.113604	-0.291693	0.190626	0.754578	1.5708	0	0	-0.0515049	-0.215846	0.199843	0.839606	1.5708	0	0
0.9	-1.60894	1.49941	0.1547	0.739094	1.14546	0.928747	0.392157	-0.0126171	-0.329801	0.520557	-0.302051	0	0	-0.223439	-0.14495	-0.0982591	0.638905	-0.228465	0	0	-0.0540835	0.150293	-0.153487	-0.110629	-0.296146	0.208015	0.753376	1.55471	0	0	-0.0659757	-0.217382	0.205829	0.827216	1.5708	0	0
0.91	-1.5765	1.4932	0.111773	0.735834	1.13442	0.93014	0.377563	0.00288648	-0.327176	0.517758	-0.297214	0	0	-0.206985	-0.15638	-0.0972117	0.694618	-0.248147	0	0	-0.0542604	0.157144	-0.125524	-0.130312	-0.288288	0.163999	0.766589	1.5708	0	0	-0.0615989	-0.22201	0.245637	0.80441	1.5708	0	0
0.92	-1.55742	1.48705	0.0830971	0.732697	1.12355	0.931361	0.362094	0.0178	-0.324657	0.512123	-0.292854	0	0	-0.186822	-0.16771	-0.0937655	0.753819	-0.267024	0	0	-0.0531805	0.163164	-0.11413	-0.132547	-0.29031	0.165703	0.772275	1.5708	0	0	-0.0719817	-0.224433	0.25777	0.793313	1.5708	0	0
0.93	-1.55884	1.48137	0.0757624	0.729755	1.11288	0.932309	0.347072	0.0319716	-0.320887	0.503543	-0.288117	0	0	-0.162377	-0.178381	-0.0891842	0.815289	-0.284628	0	0	-0.0505975	0.168901	-0.104081	-0.134761	-0.293698	0.169197	0.780177	1.5708	0	0	-0.0827659	-0.226695	0.268215	0.784097	1.5708	0	0
0.94	-1.55952	1.4766	0.0686686	0.727026	1.10245	0.933079	0.331628	0.0450721	-0.315431	0.493885	-0.282405	0	0	-0.136103	-0.18818	-0.0844493	0.877838	-0.296853	0	0	-0.0484308	0.173378	-0.095428	-0.135798	-0.298319	0.176249	0.789014	1.5708	0	0	-0.0943806	-0.230717	0.280062	0.777726	1.5708	0	0
0.95	-1.54074	1.47308	0.0444122	0.724629	1.09238	0.933841	0.315042	0.0554229	-0.312749	0.486739	-0.276728	0	0	-0.110134	-0.19673	-0.0779306	0.941105	-0.303078	0	0	-0.0497655	0.176162	-0.0947573	-0.129833	-0.302207	0.188632	0.795518	1.5708	0	0	-0.112689	-0.233164	0.275894	0.778694	1.5708	0	0
0.96	-1.52877	1.47013	0.0278315	0.722388	1.0825	0.934542	0.298493	0.0652192	-0.308134	0.47752	-0.270351	0	0	-0.0824664	-0.204929	-0.0723376	1.00488	-0.307198	0	0	-0.0500684	0.179169	-0.0863107	-0.131692	-0.306061	0.189566	0.807514	1.5708	0	0	-0.120822	-0.237165	0.289264	0.773459	1.5708	0	0
0.97	-1.50446	1.46815	0.000257234	0.720348	1.07283	0.935422	0.280181	0.0732217	-0.304884	0.467821	-0.264759	0	0	-0.0555172	-0.212169	-0.0671311	1.0671	-0.311208	0	0	-0.0521099	0.18081	-0.0801308	-0.130516	-0.308423	0.189868	0.816742	1.5708	0	0	-0.129208	-0.241373	0.300404	0.769207	1.5708	0	0
0.98	-1.46703	1.4664	-0.0383851	0.718546	1.06336	0.936563	0.25896	0.0804544	-0.30282	0.455051	-0.259869	0	0	-0.0290438	-0.218998	-0.0619154	1.12684	-0.316056	0	0	-0.0556027	0.181549	-0.0754188	-0.127365	-0.310038	0.190779	0.823154	1.5708	0	0	-0.136466	-0.246833	0.313717	0.764589	1.5708	0	0
0.99	-1.41285	1.46465	-0.0920634	0.716914	1.05413	0.937984	0.233939	0.0875682	-0.299996	0.43768	-0.256295	0	0	-0.00398187	-0.224991	-0.0560965	1.1829	-0.315517	0	0	-0.0609703	0.18145	-0.0715762	-0.12231	-0.310166	0.189933	0.826876	1.5708	0	0	-0.142254	-0.254241	0.330774	0.760098	1.5708	0	0
1	-1.35469	1.46344	-0.149115	0.715394	1.04509	0.939514	0.207767	0.0938027	-0.296543	0.418449	-0.254427	0	0	0.02018	-0.228647	-0.0493971	1.23362	-0.305022	0	0	-0.0672085	0.180622	-0.0685627	-0.116176	-0.310415	0.189732	0.830173	1.5708	0	0	-0.147511	-0.259483	0.342245	0.755787	1.5708	0	0
1.01	-1.28888	1.46205	-0.213644	0.713944	1.03623	0.941086	0.178878	0.10045	-0.290064	0.394087	-0.255693	0	0	0.0425934	-0.230913	-0.0431239	1.27839	-0.285296	0	0	-0.0700653	0.179119	-0.0832322	-0.0786194	-0.345804	0.304016	0.824981	1.4453	0	0	-0.165598	-0.26131	0.330617	0.755535	1.5708	0	0
1.02	-1.23739	1.46168	-0.264064	0.712373	1.02745	0.942555	0.151171	0.106509	-0.282063	0.367432	-0.260636	0	0	0.0661897	-0.23122	-0.0368753	1.31751	-0.262211	0	0	-0.0802082	0.176411	-0.0727726	-0.0913691	-0.313715	0.210391	0.829087	1.5708	0	0	-0.168186	-0.264381	0.333684	0.755262	1.5708	0	0
1.03	-1.20368	1.46244	-0.297439	0.710789	1.01871	0.943781	0.127616	0.110984	-0.27545	0.345373	-0.261739	0	0	0.0917858	-0.229885	-0.0314973	1.35227	-0.241124	0	0	-0.0831061	0.172897	-0.0737959	-0.0799841	-0.31462	0.218476	0.828378	1.5708	0	0	-0.178644	-0.265471	0.325486	0.755375	1.5708	0	0
